<?xml version="1.0" standalone="no"?>
<!DOCTYPE svg PUBLIC "-//W3C//DTD SVG 20010904//EN"
 "http://www.w3.org/TR/2001/REC-SVG-20010904/DTD/svg10.dtd">
<svg version="1.0" xmlns="http://www.w3.org/2000/svg"
 width="900.000000pt" height="1273.000000pt" viewBox="0 0 900.000000 1273.000000"
 preserveAspectRatio="xMidYMid meet">
<metadata>
Created by potrace 1.16, written by Peter Selinger 2001-2019
</metadata>
<g transform="translate(0.000000,1273.000000) scale(0.100000,-0.100000)"
fill="#000000" stroke="none">
<path d="M0 6365 l0 -6365 4500 0 4500 0 0 6365 0 6365 -4500 0 -4500 0 0
-6365z m5674 5604 c14 -7 23 -16 20 -20 -3 -5 -1 -9 4 -9 15 0 32 -49 32 -93
0 -23 -15 -86 -33 -139 l-33 -97 -16 27 c-28 46 -67 174 -72 235 -5 49 -3 59
12 64 9 3 25 14 35 25 21 21 19 21 51 7z m-2325 -551 c22 -2 101 -87 118 -126
9 -21 18 -82 21 -139 5 -102 5 -103 -18 -103 -15 0 -57 31 -119 87 -53 48 -97
88 -99 89 -1 1 -7 15 -11 32 -8 25 -6 30 5 25 9 -3 14 2 14 14 0 27 20 43 55
43 29 1 29 1 10 16 -11 8 -19 20 -17 25 1 5 -2 9 -8 9 -5 0 -6 7 -3 17 4 11 3
14 -5 9 -7 -4 -12 -2 -12 4 0 6 11 8 28 4 15 -3 33 -6 41 -6z m1988 -95 c11
-21 26 -61 33 -90 15 -65 18 -189 5 -202 -18 -18 -52 -1 -73 38 -12 21 -36 50
-53 64 -29 24 -31 29 -20 50 7 13 13 42 14 65 1 25 7 42 14 42 7 0 16 12 19
28 14 56 32 57 61 5z m-1132 -295 c8 -28 20 -77 27 -109 10 -50 9 -60 -5 -83
-21 -32 -31 -32 -67 -3 -15 12 -35 27 -45 33 -13 7 -20 29 -26 74 -7 65 -3 93
11 70 6 -9 12 -10 26 -1 11 6 13 11 6 11 -9 0 -8 7 4 25 9 14 20 22 25 19 5
-3 9 0 9 5 0 6 4 11 10 11 5 0 16 -23 25 -52z m1405 -898 c0 -5 -2 -10 -4 -10
-3 0 -8 5 -11 10 -3 6 -1 10 4 10 6 0 11 -4 11 -10z m54 -94 c22 -46 33 -82
29 -93 -3 -10 -3 -15 2 -11 26 24 65 -90 51 -149 -26 -106 -26 -105 -54 -98
-38 9 -69 41 -74 76 -4 25 -1 29 21 30 17 1 20 3 9 6 -10 2 -18 9 -18 14 0 6
9 7 20 4 14 -5 20 -2 20 10 0 9 -4 14 -9 11 -4 -3 -17 4 -27 15 -15 17 -16 22
-4 29 8 5 11 12 8 16 -10 10 20 36 33 28 15 -9 3 28 -30 91 -14 27 -27 60 -29
72 -6 45 18 22 52 -51z m-5236 -191 c-3 -3 -9 2 -12 12 -6 14 -5 15 5 6 7 -7
10 -15 7 -18z m52 -50 c7 -9 8 -15 2 -15 -5 0 -12 7 -16 15 -3 8 -4 15 -2 15
2 0 9 -7 16 -15z m4035 -145 c8 0 15 9 15 20 0 17 4 19 16 12 19 -11 56 -4 66
12 4 6 9 4 14 -7 3 -9 14 -17 24 -17 23 0 67 -75 76 -129 6 -35 4 -41 -11 -41
-13 0 -16 -6 -13 -25 4 -20 2 -24 -12 -20 -14 5 -16 -3 -15 -62 2 -73 -2 -93
-16 -93 -18 0 -136 128 -148 161 -7 19 -27 66 -46 104 -30 63 -55 135 -55 159
0 5 20 -10 45 -33 24 -22 51 -41 60 -41z m-955 -49 c0 -6 -4 -13 -10 -16 -5
-3 -10 1 -10 9 0 9 5 16 10 16 6 0 10 -4 10 -9z m-1738 -121 c15 -30 29 -59
31 -65 2 -5 45 21 95 58 l91 68 44 -19 c53 -23 109 -72 146 -126 41 -59 91
-209 92 -276 0 -30 3 -48 6 -40 25 73 91 158 145 186 31 16 115 19 152 4 43
-16 108 -83 132 -135 30 -62 31 -143 5 -202 -38 -83 -144 -163 -216 -163 -107
0 -224 116 -225 222 l-1 43 -14 -40 c-15 -41 -47 -75 -71 -75 -30 0 -14 -48
28 -83 45 -37 47 -67 6 -67 -32 0 -62 23 -90 67 -21 35 -23 52 -28 223 l-5
185 -34 63 c-35 64 -88 112 -124 112 -23 0 -52 -16 -99 -53 l-38 -30 0 -246
c0 -211 2 -250 16 -270 21 -30 7 -45 -30 -31 -34 13 -87 13 -121 0 -35 -13
-44 10 -19 48 17 25 19 49 19 273 -1 273 -2 279 -61 279 -22 0 -34 5 -34 14 0
18 141 136 160 133 8 -1 27 -27 42 -57z m1601 -238 c9 -15 21 -33 26 -41 7
-11 24 -4 84 33 73 46 77 47 104 32 44 -22 108 -97 128 -149 32 -86 8 -176
-74 -268 -66 -75 -144 -99 -212 -63 l-30 15 4 -93 c2 -51 7 -104 12 -117 8
-23 7 -24 -26 -16 -19 5 -58 7 -86 6 -57 -2 -65 7 -38 43 11 14 15 47 15 113
l0 93 -24 -6 c-21 -5 -24 -3 -19 14 3 12 14 28 24 38 17 15 19 32 19 151 l0
135 -30 11 c-16 6 -30 17 -30 23 0 16 108 84 124 78 7 -3 20 -17 29 -32z m549
15 c14 -13 29 -31 35 -41 9 -17 13 -15 46 20 33 36 39 39 86 37 28 -1 60 -7
71 -13 19 -10 18 -14 -30 -85 -62 -92 -70 -97 -70 -47 0 47 -21 60 -56 37 -24
-15 -24 -18 -24 -179 0 -133 3 -166 15 -176 19 -16 19 -40 0 -40 -8 0 -26 5
-40 12 -20 9 -36 9 -71 0 -57 -15 -69 -8 -44 26 19 25 20 40 18 187 l-3 160
-39 19 -40 19 49 44 c27 24 55 43 61 43 6 0 22 -10 36 -23z m617 -13 c69 -39
101 -62 101 -75 0 -8 -131 -92 -242 -155 -38 -21 -68 -41 -68 -44 0 -15 59
-59 93 -70 56 -18 102 -5 153 42 36 33 45 37 50 24 14 -37 -25 -108 -89 -160
-31 -25 -49 -31 -102 -34 -80 -5 -116 15 -171 94 -36 52 -39 63 -43 137 -4
101 8 142 61 202 76 87 150 98 257 39z m413 15 c43 -17 56 -18 75 -8 33 18 39
5 17 -37 -37 -70 -82 -81 -165 -39 -83 43 -97 46 -114 29 -26 -27 -19 -70 18
-97 52 -40 91 -43 137 -13 27 17 53 26 81 26 35 0 48 -6 80 -39 37 -37 39 -42
39 -102 0 -79 -21 -118 -87 -159 -110 -70 -248 -67 -321 6 -28 28 -33 39 -30
70 4 50 42 80 81 65 27 -10 27 -12 12 -35 -51 -77 67 -146 163 -97 69 35 94
120 51 175 -38 48 -109 19 -95 -40 7 -26 7 -27 -35 -20 -78 13 -132 58 -157
133 -13 40 5 122 34 154 45 51 130 62 216 28z m487 0 c50 -17 63 -18 80 -7 30
19 37 3 15 -38 -37 -70 -82 -81 -165 -39 -83 43 -97 46 -114 29 -41 -41 -4
-101 76 -126 35 -10 42 -9 79 15 99 67 200 8 200 -117 0 -61 -14 -99 -52 -132
-65 -60 -188 -88 -277 -64 -26 7 -59 26 -79 46 -28 28 -33 39 -30 70 4 50 42
80 81 65 27 -10 27 -12 12 -35 -38 -57 11 -111 98 -110 85 0 137 50 137 130 0
69 -65 108 -105 64 -12 -13 -15 -27 -11 -46 7 -26 7 -27 -35 -20 -56 9 -93 30
-122 68 -37 50 -47 89 -36 139 26 116 115 155 248 108z m371 -11 c18 -29 20
-48 17 -173 -2 -157 6 -184 65 -204 33 -12 56 -4 96 32 21 19 22 28 22 164 0
107 -4 151 -15 172 -8 16 -12 31 -9 34 3 2 23 0 45 -6 28 -7 51 -7 75 1 29 8
36 8 41 -4 3 -8 -1 -22 -8 -31 -17 -20 -26 -295 -11 -334 7 -18 20 -28 41 -32
17 -4 31 -11 31 -16 0 -12 -99 -81 -116 -81 -6 0 -25 20 -43 45 l-32 44 -76
-46 -76 -46 -35 19 c-20 10 -53 35 -74 55 l-38 36 0 136 c0 74 -3 142 -6 151
-3 9 -17 16 -30 16 -43 0 -26 28 39 64 34 20 65 36 70 36 4 0 16 -15 27 -32z
m592 9 c14 -13 29 -31 35 -41 9 -17 13 -15 46 20 33 36 39 39 86 37 28 -1 60
-7 71 -13 19 -10 18 -14 -30 -85 -62 -92 -70 -97 -70 -47 0 47 -21 60 -56 37
-24 -15 -24 -18 -24 -179 0 -133 3 -166 15 -176 19 -16 19 -40 0 -40 -8 0 -26
5 -40 12 -20 9 -36 9 -71 0 -57 -15 -69 -8 -44 26 19 25 20 40 18 187 l-3 160
-39 19 -40 19 49 44 c27 24 55 43 61 43 6 0 22 -10 36 -23z m613 -17 c87 -48
104 -65 84 -84 -8 -8 -77 -51 -154 -96 -77 -45 -142 -84 -144 -86 -11 -10 57
-65 93 -75 58 -16 102 -3 151 42 47 43 61 39 51 -14 -8 -41 -75 -119 -120
-141 -48 -22 -133 -21 -170 3 -41 27 -94 97 -107 141 -6 20 -10 73 -8 118 4
70 8 86 34 123 83 118 165 138 290 69z m-2884 -287 c-9 -15 -10 -12 -10 17 0
29 1 32 10 18 7 -12 7 -24 0 -35z m3157 -135 c23 -23 12 -48 -41 -88 -49 -36
-77 -49 -77 -35 0 3 13 35 29 70 24 53 34 65 53 65 13 0 29 -5 36 -12z m-2723
-261 c-14 -34 -30 -53 -20 -24 19 54 26 69 30 65 3 -3 -2 -21 -10 -41z m-1982
6 c-7 -2 -19 -2 -25 0 -7 3 -2 5 12 5 14 0 19 -2 13 -5z m1548 -10 c13 -16 12
-17 -3 -4 -10 7 -18 15 -18 17 0 8 8 3 21 -13z m-406 -23 c10 -11 16 -20 13
-20 -3 0 -13 9 -23 20 -10 11 -16 20 -13 20 3 0 13 -9 23 -20z m-3354 -88 c-7
-2 -18 1 -23 6 -8 8 -4 9 13 5 13 -4 18 -8 10 -11z m4272 -22 c-8 -17 -18 -61
-23 -98 l-7 -67 -2 57 c-1 56 22 138 39 138 5 0 2 -14 -7 -30z m127 -34 c0
-12 -5 -7 -19 24 -11 24 -11 24 3 6 9 -11 16 -24 16 -30z m1414 6 c3 -10 14
-19 23 -20 10 -1 39 -4 65 -6 26 -3 56 -10 67 -15 11 -6 38 -12 61 -13 32 -1
38 -3 24 -11 -19 -11 -124 10 -137 27 -6 8 -10 8 -13 0 -4 -8 -17 -9 -47 -2
-46 10 -67 24 -67 44 0 20 18 17 24 -4z m-2239 -2 c3 -6 -1 -7 -9 -4 -18 7
-21 14 -7 14 6 0 13 -4 16 -10z m79 -41 c11 -11 23 -19 27 -19 3 0 37 -25 74
-55 36 -30 61 -55 55 -55 -6 0 -37 22 -68 49 -31 27 -79 63 -107 81 -27 18
-39 29 -26 25 14 -4 34 -16 45 -26z m-2884 -21 c35 -31 38 -35 11 -17 -19 12
-41 23 -50 24 -10 0 -27 8 -39 16 l-22 16 27 1 c19 0 42 -12 73 -40z m2685 4
c-6 -7 -45 19 -45 29 0 5 11 2 24 -8 13 -10 23 -19 21 -21z m995 -49 c31 -84
77 -170 131 -243 34 -47 47 -73 42 -86 -4 -11 -3 -15 5 -10 7 4 18 -7 28 -26
9 -18 24 -38 32 -44 16 -12 7 -39 -9 -28 -5 3 -7 10 -4 15 4 5 1 9 -4 9 -6 0
-11 6 -11 14 0 8 -6 16 -12 19 -7 3 -22 19 -32 37 -11 19 -13 29 -6 25 8 -5
11 -3 8 6 -3 8 -10 13 -16 12 -7 -2 -9 4 -5 14 5 12 3 14 -7 8 -8 -5 -11 -4
-7 2 3 5 -12 32 -33 61 -33 43 -96 161 -113 212 -3 8 -12 33 -21 55 -14 34
-14 37 -1 21 8 -11 24 -44 35 -73z m-2790 42 c-7 -8 -18 -15 -24 -15 -6 0 -2
7 8 15 25 19 32 19 16 0z m2722 -131 c3 -54 5 -100 3 -102 -4 -5 -22 89 -30
156 -5 42 -3 53 7 50 9 -3 15 -36 20 -104z m-462 49 l25 -28 -35 30 c-55 47
-56 48 -35 37 11 -6 31 -23 45 -39z m1128 2 c-3 -3 -9 2 -12 12 -6 14 -5 15 5
6 7 -7 10 -15 7 -18z m-2073 -3 c-3 -3 -11 0 -18 7 -9 10 -8 11 6 5 10 -3 15
-9 12 -12z m625 3 c11 -13 10 -14 -4 -9 -9 3 -16 10 -16 15 0 13 6 11 20 -6z
m475 -105 c20 -16 35 -32 35 -35 -1 -4 11 -20 26 -36 l29 -30 -49 21 c-26 12
-50 19 -53 16 -3 -2 -23 6 -44 20 -21 13 -43 24 -48 24 -5 0 -15 7 -22 16 -11
13 -4 12 29 -5 23 -12 47 -19 53 -15 6 3 18 -1 27 -8 9 -8 24 -19 32 -23 12
-7 13 -6 3 7 -7 8 -9 19 -5 23 4 5 2 5 -4 2 -6 -4 -33 19 -61 51 -61 71 -79
102 -24 44 22 -24 56 -56 76 -72z m-61 -3 c30 -27 -2 -8 -57 32 -26 19 -47 39
-47 44 0 8 38 -20 104 -76z m-234 5 c25 -11 56 -23 70 -26 70 -14 91 -15 85
-6 -4 6 13 3 37 -6 52 -21 69 -34 37 -29 -58 8 -186 34 -203 41 -13 5 -17 4
-13 -4 5 -7 -2 -8 -25 -2 -18 5 -58 12 -88 16 -43 5 -50 8 -33 15 12 4 43 2
75 -7 29 -7 55 -14 58 -14 7 0 -102 59 -122 66 -10 4 -18 11 -18 16 0 5 21 -2
48 -15 26 -14 67 -34 92 -45z m-615 40 c-3 -3 -11 0 -18 7 -9 10 -8 11 6 5 10
-3 15 -9 12 -12z m408 -22 l32 -22 -35 7 c-19 3 -50 9 -67 12 -18 3 -33 9 -33
14 0 4 14 3 32 -2 41 -11 48 -4 9 9 -17 6 -31 13 -31 16 0 9 62 -13 93 -34z
m-175 23 c-10 -2 -26 -2 -35 0 -10 3 -2 5 17 5 19 0 27 -2 18 -5z m-318 -86
c0 -1 -9 -20 -20 -42 -19 -37 -20 -59 -20 -324 0 -238 3 -293 17 -337 9 -30
14 -57 10 -60 -3 -3 -20 -2 -36 4 -20 7 -42 7 -62 2 -40 -12 -49 -6 -49 30 l0
29 -49 -31 c-73 -44 -124 -47 -183 -9 -87 56 -125 153 -104 265 9 47 64 115
137 170 54 41 67 46 112 46 29 0 59 -4 67 -10 21 -13 30 6 30 71 0 42 -5 63
-21 83 -12 16 -18 31 -13 36 31 29 184 93 184 77z m3380 -2 c0 -2 -9 -19 -19
-36 -18 -30 -20 -54 -21 -321 0 -247 2 -298 17 -344 9 -29 14 -57 10 -60 -3
-3 -20 -2 -36 4 -20 7 -42 7 -62 2 -40 -12 -49 -6 -49 30 l0 29 -49 -31 c-72
-44 -124 -47 -181 -10 -66 42 -103 101 -108 172 -2 33 -1 75 2 94 9 47 64 115
138 171 59 44 65 46 118 43 30 -2 62 -6 70 -9 12 -3 16 9 18 60 3 54 -1 70
-18 94 -12 16 -18 32 -14 37 36 32 184 93 184 75z m-1993 -42 c-3 -10 -5 -4
-5 12 0 17 2 24 5 18 2 -7 2 -21 0 -30z m-1135 -10 c10 -9 18 -25 18 -36 0
-27 -46 -104 -70 -117 -25 -13 -39 11 -47 80 -5 40 -2 54 12 70 22 24 62 26
87 3z m-1657 -83 c22 -11 46 -19 53 -20 6 0 12 -4 12 -9 0 -5 -27 0 -60 11
-33 12 -60 25 -60 29 0 13 10 11 55 -11z m3129 -196 c17 -13 27 -24 23 -24
-12 0 -117 101 -117 113 0 6 14 -7 32 -27 18 -21 46 -48 62 -62z m-3655 57
c11 -11 27 -34 36 -50 8 -17 21 -31 28 -31 6 0 48 22 92 49 80 49 80 49 110
32 16 -9 43 -36 60 -60 29 -42 30 -46 33 -174 3 -159 6 -177 32 -177 45 0 27
-31 -38 -64 -31 -16 -35 -16 -58 -1 -63 41 -64 43 -64 195 l0 140 -29 32 -30
33 -47 -25 c-26 -13 -52 -30 -59 -37 -17 -17 -20 -249 -4 -303 7 -22 10 -43 6
-46 -3 -3 -21 0 -41 7 -27 10 -43 10 -72 1 -21 -6 -40 -9 -43 -7 -2 3 3 29 12
59 17 52 24 263 11 312 -3 12 -21 30 -41 41 l-35 20 47 37 c55 41 67 44 94 17z
m800 0 c21 -11 53 -37 71 -57 117 -134 84 -314 -74 -404 -84 -49 -163 -36
-239 38 -105 101 -105 239 0 362 20 23 51 51 67 61 42 25 125 25 175 0z m1358
-26 c21 -37 23 -52 23 -221 0 -143 3 -184 15 -200 29 -39 20 -44 -80 -44 -52
0 -95 3 -95 8 1 4 7 18 15 32 11 19 14 66 15 192 l0 166 -36 12 c-19 7 -33 17
-31 23 5 15 119 78 137 74 8 -1 25 -20 37 -42z m442 14 l60 -32 36 22 c20 11
38 21 41 21 11 0 1 -24 -28 -65 -32 -45 -33 -51 -36 -160 -4 -129 2 -148 55
-170 l37 -16 -59 -39 c-33 -22 -64 -40 -68 -40 -4 0 -24 18 -45 40 l-37 40
-64 -41 c-75 -49 -106 -48 -168 6 -84 72 -106 178 -57 271 51 97 174 194 246
194 15 0 55 -14 87 -31z m381 -29 l31 -49 76 55 c42 30 81 54 86 54 6 0 32
-23 58 -52 l48 -51 79 51 c43 29 81 52 85 52 11 0 87 -71 100 -94 7 -13 14
-83 17 -176 5 -149 6 -155 28 -165 32 -14 28 -27 -20 -58 -52 -34 -58 -34 -90
1 -47 50 -50 63 -42 206 6 115 5 136 -10 158 -24 37 -42 41 -86 18 -64 -32
-70 -49 -70 -183 0 -82 5 -129 15 -154 8 -19 15 -39 15 -43 0 -4 -28 -7 -62
-6 -35 0 -70 -2 -78 -4 -11 -4 -14 2 -12 20 2 14 6 96 9 182 l5 157 -26 26
c-14 14 -29 25 -34 25 -5 0 -28 -14 -50 -30 l-42 -30 0 -148 c0 -117 3 -152
16 -170 21 -30 10 -44 -24 -31 -15 6 -50 8 -81 4 -50 -6 -53 -5 -45 12 5 10
10 92 12 182 3 142 1 166 -14 182 -11 13 -24 17 -40 13 -18 -5 -24 -2 -24 9 0
20 107 97 125 91 8 -3 28 -28 45 -54z m1029 41 c122 -63 175 -219 115 -339
-41 -83 -138 -152 -214 -152 -72 0 -163 66 -205 149 -22 43 -17 150 9 202 23
48 82 117 120 140 42 25 125 25 175 0z m324 7 c9 -7 27 -32 39 -55 l24 -42 91
54 91 53 30 -19 c17 -10 44 -37 59 -60 27 -40 28 -49 31 -173 3 -158 6 -176
32 -176 45 0 27 -31 -38 -64 -31 -16 -35 -16 -60 0 -58 36 -62 48 -62 196 l0
138 -30 32 -29 33 -58 -32 -58 -31 1 -144 c0 -78 4 -158 9 -177 8 -33 7 -34
-16 -27 -48 16 -87 18 -109 6 -32 -17 -36 -6 -17 54 17 52 24 263 11 312 -3
12 -21 30 -41 41 l-35 20 47 37 c52 39 63 42 88 24z m1296 -9 c50 -17 63 -18
80 -7 44 27 38 -22 -9 -71 -35 -39 -73 -40 -141 -6 -83 43 -97 46 -114 29 -22
-23 -19 -67 8 -91 12 -12 41 -27 64 -34 40 -11 45 -10 83 14 28 19 53 27 84
27 38 0 48 -5 80 -40 33 -37 36 -45 36 -103 0 -77 -22 -116 -87 -157 -78 -50
-162 -63 -248 -39 -92 26 -137 122 -78 168 39 32 102 9 69 -25 -46 -45 12
-109 97 -108 85 0 137 50 137 130 0 69 -65 108 -105 64 -12 -13 -15 -27 -11
-46 7 -26 7 -27 -35 -20 -56 9 -93 30 -122 68 -37 50 -47 89 -36 139 26 115
116 154 248 108z m-1953 -31 l29 -33 -32 29 c-31 28 -38 36 -30 36 2 0 16 -15
33 -32z m2294 -328 c28 -28 25 -53 -14 -94 -46 -49 -72 -48 -86 4 -11 41 -7
74 12 98 16 19 66 14 88 -8z m-1824 -105 c10 -8 15 -14 9 -14 -5 0 -19 6 -29
14 -11 8 -15 15 -10 15 6 0 19 -7 30 -15z m-1841 -45 c21 -22 37 -40 34 -40
-3 0 -23 18 -44 40 -21 22 -37 40 -34 40 3 0 23 -18 44 -40z m1903 -10 c42
-30 57 -49 25 -31 -34 18 -87 61 -76 61 5 0 29 -14 51 -30z m-2727 -12 c8 -15
8 -18 0 -14 -6 4 -16 16 -22 28 -8 15 -8 18 0 14 6 -4 16 -16 22 -28z m2566 0
c4 -7 10 -35 14 -63 4 -27 10 -61 14 -75 5 -20 4 -22 -4 -8 -11 16 -51 135
-51 151 0 12 18 8 27 -5z m-741 -23 c-22 -17 -60 -20 -51 -5 4 6 10 8 14 6 4
-3 13 -1 21 5 24 14 37 10 16 -6z m-4048 -16 c68 -17 74 -29 11 -22 -30 3 -61
12 -69 19 -18 18 -6 18 58 3z m3938 -36 c-15 -8 -35 -12 -44 -10 -12 2 -7 8
18 19 42 18 64 11 26 -9z m-1108 1 c22 -15 30 -34 14 -34 -5 0 -22 11 -38 25
-33 28 -14 36 24 9z m2066 0 c3 -9 6 -28 6 -42 -1 -31 -13 -15 -24 31 -7 29 8
38 18 11z m-2559 -39 c27 -25 46 -45 43 -45 -17 0 -78 43 -92 66 -24 36 -7 29
49 -21z m1530 35 c-3 -5 -10 -10 -16 -10 -5 0 -9 5 -9 10 0 6 7 10 16 10 8 0
12 -4 9 -10z m-45 -25 c-7 -9 -15 -13 -17 -11 -7 7 7 26 19 26 6 0 6 -6 -2
-15z m1307 9 c-3 -3 -12 -4 -19 -1 -8 3 -5 6 6 6 11 1 17 -2 13 -5z m-1412
-44 c-27 -10 -59 -18 -70 -18 -11 0 3 8 30 18 28 10 59 18 70 18 11 0 -2 -8
-30 -18z m1292 -37 c-3 -10 -5 -4 -5 12 0 17 2 24 5 18 2 -7 2 -21 0 -30z
m-1477 7 c-8 -5 -19 -10 -25 -10 -5 0 -3 5 5 10 8 5 20 10 25 10 6 0 3 -5 -5
-10z m1657 -62 c-3 -7 -5 -2 -5 12 0 14 2 19 5 13 2 -7 2 -19 0 -25z m-2154
-43 c9 -20 22 -33 29 -30 16 6 76 -40 66 -50 -4 -4 -19 2 -34 14 -15 11 -36
21 -48 21 -29 0 -56 33 -49 59 8 30 17 26 36 -14z m138 8 c43 -48 97 -129 120
-183 14 -34 27 -49 35 -46 9 3 14 -2 14 -13 0 -30 38 -71 64 -69 20 2 23 7 22
31 l-2 29 20 -28 c12 -16 21 -33 21 -38 0 -5 10 -15 23 -23 13 -10 22 -11 22
-4 0 7 8 8 27 0 44 -17 62 -38 69 -85 3 -24 15 -56 26 -70 24 -30 34 -25 18 8
-9 18 -6 17 15 -7 14 -16 32 -29 40 -27 25 5 18 -42 -11 -69 -23 -21 -25 -29
-20 -74 3 -27 6 -62 6 -77 0 -15 5 -30 11 -34 8 -5 10 -2 5 7 -4 8 6 -1 24
-19 24 -26 31 -41 29 -65 -2 -18 0 -55 5 -83 6 -43 4 -56 -15 -90 -30 -53 -58
-74 -97 -74 -26 0 -41 -8 -65 -36 -52 -59 -116 -85 -95 -39 8 19 8 28 -2 40
-7 8 -10 18 -7 21 9 9 29 -36 23 -52 -7 -18 5 -18 29 -1 13 10 16 21 11 40 -4
16 -11 24 -19 21 -7 -2 -21 3 -32 12 -20 16 -20 16 0 9 11 -4 26 -8 33 -9 8
-1 17 -9 22 -16 5 -8 11 -12 14 -9 4 3 -10 23 -30 45 -23 25 -33 32 -29 19 5
-16 4 -17 -6 -8 -9 9 -17 9 -32 2 -14 -8 -18 -8 -13 0 4 6 0 11 -8 11 -20 0
-20 -2 6 -47 15 -25 17 -34 7 -26 -9 7 -20 9 -24 5 -5 -4 -5 -2 -2 4 4 6 -3
20 -16 30 l-22 19 20 -24 c18 -22 18 -24 2 -18 -17 6 -17 5 1 -21 10 -15 22
-34 26 -42 6 -13 5 -13 -6 0 -7 9 -21 14 -31 12 -9 -2 -20 3 -23 12 -3 8 -12
13 -20 10 -50 -15 -48 -13 -29 -34 14 -16 8 -29 -8 -17 -2 1 -12 -5 -23 -13
-18 -14 -18 -14 -4 4 14 18 13 19 -5 13 -20 -7 -20 -7 0 8 17 14 18 17 5 26
-12 8 -12 9 4 7 10 -2 21 3 23 10 6 15 -43 17 -52 2 -10 -16 -21 -11 -21 10 0
14 7 20 21 20 11 0 31 7 43 16 l23 16 -26 33 c-14 19 -25 35 -25 38 0 11 45
-2 56 -17 12 -17 13 -16 23 3 9 16 8 29 -4 57 -17 41 -19 58 -4 32 5 -10 17
-18 25 -18 8 0 13 4 10 9 -4 5 0 11 6 14 10 3 8 9 -4 24 -27 30 -22 34 15 13
49 -29 65 -13 33 34 -13 20 -28 51 -31 69 -4 18 -14 45 -22 61 -10 18 -10 26
-3 21 7 -4 23 -33 37 -64 29 -66 37 -72 69 -57 31 14 30 31 -1 52 -14 9 -25
21 -25 27 0 5 8 3 18 -6 26 -24 32 -21 32 16 0 24 -10 44 -37 73 -61 65 -110
141 -63 99 13 -12 20 -14 20 -5 0 6 6 10 14 7 9 -4 16 3 21 20 4 19 -1 36 -22
65 -15 22 -38 57 -49 79 -12 21 -36 52 -53 68 -17 16 -31 36 -31 44 0 8 -12
22 -26 32 -19 12 -24 22 -20 39 7 30 -63 173 -79 158 -5 -4 -5 -2 -1 5 4 7 -7
25 -25 43 -18 16 -28 30 -22 30 5 0 21 -12 34 -27z m-586 -4 c15 -14 -7 -10
-35 7 l-25 15 25 -7 c14 -3 29 -10 35 -15z m1215 17 c0 -8 -71 -48 -76 -43 -3
2 10 14 28 25 33 20 48 26 48 18z m-1270 -26 c8 -5 11 -10 5 -10 -5 0 -17 5
-25 10 -8 5 -10 10 -5 10 6 0 17 -5 25 -10z m2550 -20 c20 -6 21 -8 5 -8 -11
0 -33 4 -50 8 -27 7 -27 8 -5 8 14 0 36 -4 50 -8z m-3352 -26 c43 -21 49 -35
10 -22 -18 6 -39 12 -45 14 -14 4 -18 24 -5 24 5 0 23 -7 40 -16z m1022 -25
c25 -10 39 -18 31 -19 -26 0 -87 22 -112 41 l-24 19 30 -11 c17 -6 50 -20 75
-30z m272 -56 c84 -7 88 -8 43 -13 -49 -5 -110 2 -170 21 l-30 9 32 -5 c17 -2
73 -8 125 -12z m1302 -46 c-5 -14 -59 -37 -85 -37 -10 0 59 39 88 49 1 1 0 -5
-3 -12z m-589 -7 c3 -6 -1 -7 -9 -4 -18 7 -21 14 -7 14 6 0 13 -4 16 -10z
m410 -30 c3 -5 1 -10 -4 -10 -6 0 -11 5 -11 10 0 6 2 10 4 10 3 0 8 -4 11 -10z
m27 -33 c-24 -10 -46 -16 -49 -13 -3 3 6 11 21 17 14 7 26 16 26 20 0 4 10 4
23 1 19 -5 17 -8 -21 -25z m-1434 -15 c2 -7 -2 -10 -12 -6 -9 3 -16 11 -16 16
0 13 23 5 28 -10z m-243 -22 c3 -6 -1 -7 -9 -4 -18 7 -21 14 -7 14 6 0 13 -4
16 -10z m1587 -2 c-10 -10 -35 -21 -147 -63 -11 -4 -2 4 20 19 22 14 47 26 55
26 8 0 26 7 40 15 31 18 48 19 32 3z m-175 -74 c-3 -3 -12 -4 -19 -1 -8 3 -5
6 6 6 11 1 17 -2 13 -5z m-1277 -66 c10 -6 4 -8 -19 -4 -18 3 -42 6 -52 6 -11
0 -19 4 -19 9 0 11 68 3 90 -11z m82 -3 c16 -14 25 -25 19 -25 -18 0 -71 36
-64 43 10 10 13 9 45 -18z m-12 -38 c0 -4 -9 -3 -20 3 -11 6 -20 15 -20 20 0
6 9 5 20 -2 11 -7 20 -16 20 -21z m120 -17 c13 -9 13 -10 0 -10 -8 0 -22 5
-30 10 -13 9 -13 10 0 10 8 0 22 -5 30 -10z m442 -48 c-13 -4 -72 25 -72 37 0
5 19 -1 42 -12 23 -12 37 -22 30 -25z m-2712 28 c0 -5 -5 -10 -11 -10 -5 0 -7
5 -4 10 3 6 8 10 11 10 2 0 4 -4 4 -10z m2380 -16 c0 -2 -7 -4 -15 -4 -8 0
-15 4 -15 10 0 5 7 7 15 4 8 -4 15 -8 15 -10z m1680 -24 c20 -6 21 -8 5 -8
-11 -1 -38 3 -60 7 l-40 9 35 0 c19 0 46 -4 60 -8z m-1260 -49 c0 -5 -7 -14
-15 -21 -12 -10 -15 -10 -15 2 0 8 3 18 7 21 9 10 23 9 23 -2z m443 -137 c-8
-21 -23 -17 -23 6 0 13 5 18 14 14 8 -3 12 -12 9 -20z m607 9 c-8 -3 -48 -21
-88 -39 -41 -19 -79 -34 -85 -33 -21 1 146 79 168 78 14 0 15 -2 5 -6z m-2017
-40 c-7 -2 -21 -2 -30 0 -10 3 -4 5 12 5 17 0 24 -2 18 -5z m67 -3 c-9 -6 -10
-10 -3 -10 7 0 23 -11 37 -25 27 -27 23 -35 -5 -9 -9 8 -23 16 -31 18 -42 6
-51 36 -10 36 21 0 24 -2 12 -10z m840 -20 c0 -5 -4 -10 -10 -10 -5 0 -10 5
-10 10 0 6 5 10 10 10 6 0 10 -4 10 -10z m590 -14 c0 -3 -4 -8 -10 -11 -5 -3
-10 -1 -10 4 0 6 5 11 10 11 6 0 10 -2 10 -4z m220 -46 c-25 -10 -58 -19 -75
-19 l-30 0 25 11 c14 5 36 12 50 14 13 3 27 7 29 10 2 2 14 4 25 3 13 0 5 -7
-24 -19z m-1529 -8 c-7 -2 -18 1 -23 6 -8 8 -4 9 13 5 13 -4 18 -8 10 -11z
m579 -34 c0 -6 -7 -5 -15 2 -8 7 -15 17 -15 22 0 6 7 5 15 -2 8 -7 15 -17 15
-22z m830 28 c0 -3 -4 -8 -10 -11 -5 -3 -10 -1 -10 4 0 6 5 11 10 11 6 0 10
-2 10 -4z m-1270 -25 c0 -5 -9 -7 -20 -4 -11 3 -20 7 -20 9 0 2 9 4 20 4 11 0
20 -4 20 -9z m550 -1 c0 -5 -4 -10 -10 -10 -5 0 -10 5 -10 10 0 6 5 10 10 10
6 0 10 -4 10 -10z m510 0 c0 -5 -2 -10 -4 -10 -3 0 -8 5 -11 10 -3 6 -1 10 4
10 6 0 11 -4 11 -10z m-1005 -10 c19 -8 19 -9 -2 -9 -12 -1 -25 4 -28 9 -7 12
2 12 30 0z m445 -45 c0 -11 -19 -4 -41 15 l-24 21 33 -16 c17 -8 32 -18 32
-20z m15 -35 c3 -5 1 -10 -4 -10 -6 0 -11 5 -11 10 0 6 2 10 4 10 3 0 8 -4 11
-10z m-424 -150 c5 0 9 -5 9 -11 0 -15 -43 -7 -48 10 -3 10 0 12 12 8 10 -4
22 -7 27 -7z m424 -58 c-15 -16 -16 -15 -4 12 7 15 15 23 17 16 3 -7 -3 -19
-13 -28z m175 -12 c0 -5 -5 -10 -11 -10 -5 0 -7 5 -4 10 3 6 8 10 11 10 2 0 4
-4 4 -10z m60 2 c0 -4 -9 -13 -20 -20 -19 -12 -20 -11 -8 8 13 20 28 27 28 12z
m-90 -8 c0 -8 -19 -13 -24 -6 -3 5 1 9 9 9 8 0 15 -2 15 -3z m-189 -253 c8
-22 18 -31 37 -33 23 -3 27 -8 30 -40 3 -37 3 -38 -24 -28 -15 6 -28 9 -30 7
-2 -2 -5 -23 -6 -46 -3 -76 -16 -28 -20 72 -1 53 -2 97 0 97 2 0 8 -13 13 -29z
m-51 -71 c0 -29 -4 -40 -15 -40 -8 0 -16 -8 -16 -17 -1 -10 -5 -4 -9 12 l-8
30 -1 -27 c-1 -21 -7 -29 -26 -34 -14 -3 -25 -14 -26 -23 0 -12 -2 -11 -8 4
-7 16 -9 13 -15 -18 -4 -20 -11 -37 -16 -37 -6 0 -10 -11 -10 -25 0 -14 -5
-25 -11 -25 -7 0 -8 14 -4 43 7 45 29 87 46 87 6 0 7 5 4 11 -8 12 33 59 51
59 7 0 17 6 21 14 7 11 19 18 41 25 1 1 2 -17 2 -39z m940 20 c0 -5 -4 -10
-10 -10 -5 0 -10 5 -10 10 0 6 5 10 10 10 6 0 10 -4 10 -10z m-774 -13 c34
-20 91 -90 98 -122 4 -16 9 -46 11 -65 4 -34 4 -34 -4 -5 -5 17 -9 27 -10 23
-3 -21 -41 36 -41 62 0 33 -2 35 -32 19 -27 -15 -44 3 -53 59 -7 44 -3 49 31
29z m-611 -7 c3 -5 -1 -10 -9 -10 -8 0 -37 -12 -63 -26 -53 -29 -38 -7 17 24
41 24 47 25 55 12z m-650 -10 c-3 -5 -11 -10 -16 -10 -6 0 -7 5 -4 10 3 6 11
10 16 10 6 0 7 -4 4 -10z m680 -10 c-3 -5 -1 -10 4 -10 25 0 8 -18 -21 -24
l-33 -7 28 -15 c15 -8 27 -17 27 -20 0 -2 -13 2 -29 11 -17 8 -37 12 -45 9
-26 -10 -18 4 12 20 19 11 22 15 10 16 -10 0 -27 -9 -39 -21 -11 -11 -23 -18
-27 -15 -6 7 -42 -23 -42 -36 0 -5 10 -2 22 6 37 27 90 20 123 -14 16 -16 26
-33 22 -36 -3 -3 -12 3 -19 15 -7 12 -19 21 -26 21 -7 0 -10 -5 -7 -10 3 -6
-2 -13 -11 -17 -25 -9 -54 -40 -46 -48 4 -4 -9 -1 -28 7 -33 14 -38 13 -87
-14 -28 -15 -57 -28 -65 -28 -7 0 1 7 17 16 48 24 103 83 98 104 -5 20 30 49
99 80 47 21 73 26 63 10z m-155 -50 c0 -5 -4 -10 -10 -10 -5 0 -10 5 -10 10 0
6 5 10 10 10 6 0 10 -4 10 -10z m230 -30 c8 -5 12 -11 10 -14 -3 -2 -14 2 -24
10 -22 15 -10 19 14 4z m40 -30 c-8 -5 -17 -7 -19 -4 -3 3 1 9 9 14 8 5 17 7
19 4 3 -3 -1 -9 -9 -14z m130 -110 c0 -5 -5 -10 -11 -10 -5 0 -7 5 -4 10 3 6
8 10 11 10 2 0 4 -4 4 -10z m274 -159 c17 -7 15 -10 -17 -30 -41 -25 -72 -21
-80 9 -4 16 1 20 32 23 20 2 38 4 41 5 3 0 14 -3 24 -7z m-743 -25 c15 -13 34
-26 41 -28 7 -3 -2 -20 -27 -46 -29 -32 -43 -41 -59 -36 -38 11 -39 22 -5 44
l34 21 -40 -5 c-35 -5 -38 -4 -22 8 23 18 22 29 -2 16 -25 -13 -41 -13 -21 0
13 9 13 11 0 19 -13 9 -13 10 0 15 8 2 22 7 30 9 29 10 42 7 71 -17z m539 -41
c0 -8 -2 -15 -4 -15 -2 0 -6 7 -10 15 -3 8 -1 15 4 15 6 0 10 -7 10 -15z
m-226 -21 c25 -9 19 -19 -19 -34 -19 -8 -35 -18 -35 -22 0 -5 -5 -6 -12 -2 -7
4 -8 3 -4 -5 4 -6 1 -14 -7 -17 -9 -3 -18 -16 -21 -28 -7 -27 -37 -30 -43 -5
-5 19 -27 21 -51 5 -10 -6 -13 -3 -10 10 4 23 90 85 131 94 43 11 53 11 71 4z
m107 -14 c10 -6 19 -14 19 -18 0 -14 -57 -6 -74 11 -17 16 -16 17 9 17 14 0
35 -5 46 -10z m149 0 c-8 -5 -24 -9 -35 -9 -16 1 -16 2 5 9 35 11 48 11 30 0z
m87 -42 c-13 -29 -22 -59 -20 -65 5 -14 -37 -34 -65 -32 -15 1 -15 2 1 6 9 2
17 12 17 21 0 9 7 26 15 36 20 27 19 63 -2 75 -14 8 -8 10 29 11 l48 0 -23
-52z m276 -10 l26 -23 -37 -2 c-29 -2 -41 3 -55 22 l-18 25 29 0 c16 0 41 -10
55 -22z m1491 -144 c-20 -54 -46 -129 -57 -166 -12 -37 -25 -68 -28 -68 -4 0
-12 13 -18 28 -10 24 -8 37 15 87 29 68 116 226 121 222 1 -2 -13 -48 -33
-103z m-1202 49 c10 -9 18 -26 18 -37 0 -15 15 -29 50 -49 30 -17 67 -50 93
-85 43 -57 85 -148 73 -159 -3 -4 -6 -1 -6 5 0 6 -10 21 -22 33 -13 12 -16 18
-8 14 13 -8 13 -7 1 8 -7 9 -18 17 -23 17 -5 0 -20 8 -33 19 -23 17 -23 19 -7
42 15 22 15 23 -1 11 -9 -8 -22 -10 -29 -6 -19 12 -101 11 -113 -1 -5 -6 -9
-8 -8 -6 4 6 -38 41 -49 41 -5 0 -11 -7 -14 -15 -4 -8 -10 -15 -16 -15 -15 0
44 101 69 118 15 9 20 19 15 26 -12 14 -22 56 -14 56 3 0 14 -7 24 -17z m1102
-281 c13 -25 13 -32 -6 -73 -22 -50 -158 -448 -220 -644 -41 -132 -63 -179
-53 -115 5 33 5 34 -6 10 -38 -79 -38 -79 -20 -73 14 6 14 4 -1 -14 -10 -11
-18 -30 -18 -42 0 -13 -4 -19 -10 -16 -6 4 -8 15 -5 26 7 21 -2 24 -25 9 -10
-6 -11 -10 -2 -10 6 0 12 -5 12 -11 0 -6 -6 -9 -14 -6 -13 5 -21 -7 -40 -67
-4 -10 -9 -17 -12 -14 -2 3 13 52 34 109 22 57 58 156 81 219 23 63 58 158 78
210 19 52 54 149 78 215 23 66 56 152 73 190 17 39 34 82 37 98 9 35 21 34 39
-1z m-819 -117 c14 -14 25 -29 25 -34 0 -4 -14 -18 -31 -30 -25 -19 -33 -21
-40 -10 -5 8 -9 20 -9 27 0 7 -6 12 -12 11 -7 -1 -22 -1 -33 0 -15 2 -12 6 17
21 20 11 40 24 43 30 9 14 11 13 40 -15z m6 -116 c6 -13 7 -25 2 -30 -13 -13
-4 -71 10 -62 6 4 8 0 4 -10 -4 -10 -1 -17 5 -17 6 0 9 -2 7 -5 -3 -2 -14 -2
-26 1 -22 6 -41 53 -25 63 15 10 -5 51 -25 51 -17 1 -16 2 1 15 26 20 33 19
47 -6z m15 -168 c-4 -5 0 -11 6 -14 7 -3 3 -4 -9 -4 -17 1 -19 4 -11 14 12 15
22 18 14 4z m-3 -69 c-29 -4 -38 2 -28 18 6 9 10 9 16 -1 6 -10 10 -9 15 6 7
18 8 18 14 -1 6 -15 2 -20 -17 -22z m197 -220 c0 -9 -5 -10 -19 -3 -13 8 -17
18 -13 37 l5 27 13 -24 c7 -13 13 -30 14 -37z m-3232 -117 c-3 -3 -9 2 -12 12
-6 14 -5 15 5 6 7 -7 10 -15 7 -18z m3195 -1 c-8 -20 -22 -17 -20 5 0 10 7 17
13 14 7 -3 10 -11 7 -19z m62 -14 c10 -11 16 -20 13 -20 -3 0 -13 9 -23 20
-10 11 -16 20 -13 20 3 0 13 -9 23 -20z m94 -109 c-2 -6 -10 2 -17 17 -11 25
-11 25 4 10 9 -9 15 -21 13 -27z m-26 -134 c-5 -36 -6 -37 -25 -21 -18 17 -18
18 4 41 12 12 23 22 24 20 2 -2 1 -20 -3 -40z m-83 -22 c0 -2 -10 -10 -22 -16
-21 -11 -22 -11 -9 4 13 16 31 23 31 12z m58 -13 c3 -11 0 -12 -16 -3 -17 9
-23 7 -36 -11 -9 -12 -16 -18 -16 -14 0 5 8 18 17 28 19 21 44 20 51 0z m84
-32 c-9 -21 -18 -35 -20 -30 -3 9 25 70 33 70 2 0 -4 -18 -13 -40z m22 -174
c-12 -23 -20 -32 -25 -24 -4 6 2 24 14 39 29 35 32 30 11 -15z m-1521 -1036
c-8 -38 -27 -80 -35 -80 -10 0 -11 112 -1 135 10 28 44 -23 36 -55z m3172 51
c-8 -13 -35 -15 -35 -2 0 5 8 11 18 13 21 5 26 2 17 -11z m-3995 -62 c0 -5 -7
-9 -15 -9 -15 0 -20 12 -9 23 8 8 24 -1 24 -14z m800 -111 c29 -38 30 -40 6
-18 -25 23 -52 60 -43 60 2 0 19 -19 37 -42z m3275 32 c3 -5 1 -10 -4 -10 -6
0 -11 5 -11 10 0 6 2 10 4 10 3 0 8 -4 11 -10z m-3207 -293 c57 -122 93 -247
72 -247 -6 0 -10 17 -10 38 0 35 -25 101 -104 279 -21 46 -39 100 -42 120 -4
27 2 17 20 -35 15 -40 43 -110 64 -155z m-288 134 c0 -11 -31 -24 -39 -16 -3
3 1 10 9 15 19 12 30 12 30 1z m-572 -13 c17 -17 101 -16 112 2 5 8 12 12 15
8 11 -11 -59 -53 -84 -49 -19 2 -22 -1 -17 -14 5 -13 2 -16 -10 -11 -8 3 -31
6 -50 6 -20 0 -33 4 -29 9 3 5 -9 9 -27 9 -18 0 -53 3 -77 7 -33 6 -40 10 -27
17 9 5 25 7 35 3 11 -3 22 -1 26 5 3 5 17 7 30 4 12 -3 26 -1 29 5 9 15 59 14
74 -1z m217 2 c3 -5 2 -10 -4 -10 -5 0 -13 5 -16 10 -3 6 -2 10 4 10 5 0 13
-4 16 -10z m2930 -55 c32 -8 76 -15 97 -15 21 0 38 -5 38 -11 0 -7 -21 -8 -65
-4 -38 4 -65 4 -65 -2 0 -12 -177 -6 -199 7 -12 7 -6 9 25 10 27 0 47 6 58 19
9 10 25 17 34 15 9 -2 44 -11 77 -19z m-4165 -55 c0 -5 -4 -10 -9 -10 -6 0
-13 5 -16 10 -3 6 1 10 9 10 9 0 16 -4 16 -10z m2625 -140 c26 -28 15 -31 -14
-3 -13 13 -20 23 -14 23 5 0 18 -9 28 -20z m-2745 -10 c12 -8 12 -10 -3 -16
-22 -8 -50 3 -42 16 8 12 25 13 45 0z m3590 -7 c14 -3 36 -5 50 -4 21 3 22 1
11 -13 -16 -19 -66 -20 -141 -3 -31 8 -61 12 -68 9 -13 -4 -16 10 -5 22 7 7
108 0 153 -11z m-1935 -18 c-16 -7 -26 -14 -22 -14 5 -1 5 -6 2 -11 -5 -8 -11
-7 -21 1 -11 9 -19 8 -39 -5 -13 -9 -29 -16 -36 -16 -6 0 -22 -9 -36 -20 -14
-11 -31 -20 -37 -20 -6 0 3 9 19 20 18 12 24 20 15 20 -9 0 -22 -6 -30 -12 -8
-7 -6 -3 4 10 11 12 31 22 45 23 14 0 49 9 76 19 61 22 105 26 60 5z m2085
-27 c0 -6 -10 -8 -22 -4 -13 3 -27 6 -31 6 -5 0 -6 4 -3 9 7 11 56 2 56 -11z
m-1920 7 c0 -2 -10 -10 -22 -16 -21 -11 -22 -11 -9 4 13 16 31 23 31 12z m920
-84 c0 -59 -7 -112 -20 -157 -42 -145 -50 -172 -79 -274 -16 -58 -32 -125 -35
-150 l-6 -45 122 -2 c131 -2 177 -9 162 -23 -5 -4 -38 -4 -73 1 -35 5 -66 8
-67 6 -2 -2 21 -11 52 -22 30 -10 53 -23 51 -29 -2 -7 -47 -11 -120 -12 -64
-1 -123 -4 -131 -7 -12 -5 -14 -20 -12 -64 3 -45 1 -52 -6 -33 -20 53 11 267
65 450 19 63 40 147 47 185 7 39 19 84 28 102 13 26 14 43 6 93 -6 33 -8 63
-5 65 16 16 21 -5 21 -84z m60 79 c0 -5 -7 -7 -15 -4 -8 4 -15 8 -15 10 0 2 7
4 15 4 8 0 15 -4 15 -10z m83 -19 c4 -5 1 -14 -8 -21 -13 -11 -14 -10 -9 4 4
11 1 16 -12 16 -11 0 -26 5 -34 11 -11 7 -6 8 20 4 19 -4 39 -10 43 -14z
m-866 3 c-3 -3 -12 -4 -19 -1 -8 3 -5 6 6 6 11 1 17 -2 13 -5z m-2312 -14 c3
-5 -3 -10 -14 -10 -12 0 -21 5 -21 10 0 6 6 10 14 10 8 0 18 -4 21 -10z m1635
-30 c-8 -5 -19 -10 -25 -10 -5 0 -3 5 5 10 8 5 20 10 25 10 6 0 3 -5 -5 -10z
m502 -7 c-18 -2 -30 -8 -28 -12 3 -4 -1 -8 -9 -8 -8 0 -15 4 -15 8 0 11 21 18
55 17 30 -1 30 -1 -3 -5z m-242 -25 c-25 -5 -53 -14 -63 -19 -19 -10 -36 -5
-24 7 9 9 68 22 102 22 23 0 20 -3 -15 -10z m165 -5 c-11 -2 -39 -11 -61 -20
-23 -8 -52 -13 -65 -11 -27 4 78 35 121 35 19 1 20 0 5 -4z m155 -3 c-19 -13
-30 -13 -30 0 0 6 10 10 23 10 18 0 19 -2 7 -10z m-441 -18 c-13 -10 -32 -22
-42 -25 -10 -4 -16 -11 -13 -16 3 -4 -3 -16 -14 -26 -11 -10 -17 -22 -14 -26
3 -5 0 -9 -5 -9 -16 0 -13 21 6 42 13 14 13 18 2 18 -18 -1 -55 -30 -62 -50
-3 -10 -6 -7 -6 8 -1 18 9 28 42 43 23 12 58 29 77 39 45 24 59 25 29 2z m374
1 c-7 -2 -21 -2 -30 0 -10 3 -4 5 12 5 17 0 24 -2 18 -5z m-323 -23 c0 -5 -10
-10 -22 -10 -13 0 -34 -2 -48 -5 -14 -3 -7 2 15 9 50 18 55 18 55 6z m60 -5
c-13 -15 -4 -15 73 0 9 2 17 -1 17 -5 0 -5 -27 -12 -60 -16 -33 -4 -63 -11
-67 -17 -4 -6 -1 -7 8 -2 12 7 12 6 1 -7 -11 -14 -10 -17 10 -21 21 -4 21 -4
-4 -6 -19 -1 -29 5 -33 20 -4 11 -5 22 -3 23 1 1 16 12 32 24 33 26 44 28 26
7z m467 -17 c-3 -7 -5 -2 -5 12 0 14 2 19 5 13 2 -7 2 -19 0 -25z m848 20 c14
-6 25 -15 25 -20 0 -5 -5 -6 -10 -3 -6 3 -22 13 -38 21 -32 17 -14 19 23 2z
m395 -9 c0 -6 -4 -7 -10 -4 -5 3 -10 11 -10 16 0 6 5 7 10 4 6 -3 10 -11 10
-16z m-115 -30 c10 -23 25 -44 32 -46 7 -3 13 -12 13 -21 0 -18 -29 -52 -44
-52 -7 0 -7 3 -1 8 6 4 16 15 24 25 12 15 10 21 -18 48 -17 16 -29 34 -26 39
3 5 1 11 -5 15 -12 7 -14 25 -2 25 4 0 16 -19 27 -41z m-190 -23 c19 -34 19
-36 0 -55 -23 -26 -50 -28 -40 -3 14 35 14 57 1 84 -13 26 -13 27 3 19 9 -5
26 -25 36 -45z m335 29 c0 -8 -2 -15 -4 -15 -2 0 -6 7 -10 15 -3 8 -1 15 4 15
6 0 10 -7 10 -15z m-876 -56 l-7 -54 -11 45 c-9 37 -9 47 4 57 21 16 22 12 14
-48z m-979 41 c-3 -5 -12 -10 -18 -10 -7 0 -6 4 3 10 19 12 23 12 15 0z m449
-4 c-18 -8 -37 -22 -43 -33 -10 -17 -10 -17 -11 3 0 22 31 42 65 43 14 0 11
-4 -11 -13z m856 -3 c31 -18 55 -59 40 -68 -5 -3 -12 6 -16 20 -3 14 -9 25
-13 25 -10 1 -57 40 -48 40 5 0 22 -7 37 -17z m-1057 -10 c-7 -2 -19 -2 -25 0
-7 3 -2 5 12 5 14 0 19 -2 13 -5z m-528 -61 c-8 -8 -25 10 -25 26 0 13 2 13
14 -4 8 -10 13 -21 11 -22z m405 28 c0 -5 -2 -10 -4 -10 -3 0 -8 5 -11 10 -3
6 -1 10 4 10 6 0 11 -4 11 -10z m450 -15 c-7 -9 -15 -13 -18 -10 -3 2 1 11 8
20 7 9 15 13 18 10 3 -2 -1 -11 -8 -20z m-1122 -9 c16 -17 -43 -29 -70 -15
-10 5 -16 14 -13 20 6 9 72 5 83 -5z m985 -1 c9 -23 -11 -28 -23 -5 -8 16 -8
20 4 20 7 0 16 -7 19 -15z m-272 -10 c19 -8 27 -14 18 -15 -9 0 -32 7 -50 15
-19 8 -27 14 -18 15 9 0 32 -7 50 -15z m-434 -32 c-9 -8 -58 17 -52 27 4 6 16
4 31 -6 13 -9 23 -18 21 -21z m883 -11 c-15 -5 -51 28 -44 40 3 5 17 -1 31
-14 14 -13 19 -24 13 -26z m2430 38 c0 -5 -4 -10 -10 -10 -5 0 -10 5 -10 10 0
6 5 10 10 10 6 0 10 -4 10 -10z m-1566 -24 c-8 -21 -43 -41 -94 -54 -77 -19
-118 -23 -125 -12 -3 5 -3 10 2 10 108 6 167 23 186 56 11 19 38 18 31 0z
m-194 -10 c0 -3 -4 -8 -10 -11 -5 -3 -10 -1 -10 4 0 6 5 11 10 11 6 0 10 -2
10 -4z m1170 -11 c16 -9 19 -14 10 -15 -9 0 -21 5 -28 12 -9 9 -12 9 -12 0 0
-7 -7 -12 -16 -12 -8 0 -13 4 -9 9 3 5 -3 12 -12 14 -10 3 -5 5 12 5 17 1 41
-5 55 -13z m-2590 -16 c0 -26 35 -42 113 -51 45 -6 89 -9 97 -8 40 6 198 4
225 -3 61 -15 159 -26 170 -18 5 5 19 5 30 1 34 -13 -40 -22 -120 -15 -88 8
-85 8 -180 0 -44 -4 -88 -13 -98 -20 -17 -12 -17 -14 -1 -29 9 -10 13 -21 8
-26 -13 -12 -76 12 -88 35 -6 11 -15 23 -19 26 -4 3 -7 12 -5 20 2 9 -7 15
-27 17 -50 4 -105 24 -105 39 0 7 -4 13 -10 13 -5 0 -10 7 -10 15 0 8 5 15 10
15 6 0 10 -5 10 -11z m2414 5 c9 -3 13 -11 9 -17 -4 -7 41 -8 149 -3 135 6
156 5 161 -9 7 -17 -8 -21 -18 -5 -4 6 -28 9 -56 6 -54 -4 -79 -16 -36 -16 15
0 27 -4 27 -10 0 -5 10 -10 23 -10 18 -1 15 -4 -13 -16 -27 -12 -54 -14 -115
-9 -95 7 -82 7 -272 -1 -162 -7 -234 -1 -214 19 6 6 33 10 61 8 27 -1 55 1 61
5 7 4 44 6 84 5 83 -3 125 6 125 24 0 8 -8 11 -20 8 -16 -4 -19 -2 -14 11 6
16 30 21 58 10z m-1859 -24 c8 -13 -5 -13 -25 0 -13 8 -13 10 2 10 9 0 20 -4
23 -10z m65 -9 c0 -4 16 -7 36 -8 40 -1 52 -9 38 -23 -6 -6 -24 -4 -49 5 -22
8 -48 14 -57 15 -28 0 -21 15 7 16 14 1 25 -1 25 -5z m-1827 -15 c10 0 15 -6
13 -12 -3 -9 16 -15 62 -19 88 -8 103 -13 80 -26 -28 -15 -108 -23 -108 -10 0
6 6 12 13 12 27 3 -51 17 -99 18 -47 1 -64 11 -64 36 0 7 55 12 70 7 8 -3 23
-5 33 -6z m3060 -3 c6 -4 3 -9 -9 -13 -10 -4 -23 -4 -29 0 -23 17 -77 19 -106
5 -18 -10 -29 -11 -29 -5 0 6 -5 8 -10 5 -18 -11 -222 -16 -215 -5 3 6 43 10
88 11 45 0 100 4 122 9 42 9 170 5 188 -7z m-427 -32 c-7 -11 -86 -13 -86 -2
0 6 17 11 38 13 41 4 55 0 48 -11z m-636 1 c0 -5 -10 -14 -22 -20 -19 -10 -9
-12 57 -11 95 2 110 1 103 -7 -11 -10 -208 -10 -209 1 0 6 -3 4 -6 -2 -5 -15
-49 -18 -57 -4 -3 5 6 9 19 10 53 3 60 4 65 10 4 5 41 29 48 30 1 1 2 -3 2 -7z
m1138 -2 c6 0 12 -4 12 -9 0 -6 -12 -6 -31 -1 -38 11 -55 26 -19 17 14 -4 31
-7 38 -7z m136 -43 c31 -14 64 -23 73 -20 11 4 14 2 9 -5 -3 -6 3 -16 14 -22
12 -6 20 -7 20 -1 0 5 -6 11 -12 14 -7 2 -10 7 -7 11 6 6 27 -1 99 -33 25 -11
25 -11 -3 -6 -19 4 -26 2 -22 -5 3 -6 -4 -10 -17 -11 l-23 0 23 -11 c12 -6 22
-15 22 -20 0 -18 -33 -7 -63 22 -18 16 -40 30 -49 30 -9 0 -20 5 -23 10 -13
21 -67 42 -78 31 -15 -15 -40 -14 -34 2 2 6 -8 20 -22 29 l-26 18 31 -4 c17
-1 56 -15 88 -29z m-1771 6 c-7 -2 -19 -2 -25 0 -7 3 -2 5 12 5 14 0 19 -2 13
-5z m73 0 c-15 -15 -81 -32 -90 -23 -7 7 -1 10 16 10 15 0 30 5 33 10 3 6 16
10 27 10 12 0 18 -3 14 -7z m165 -31 c-7 -2 -18 1 -23 6 -8 8 -4 9 13 5 13 -4
18 -8 10 -11z m46 12 c-3 -3 -12 -4 -19 -1 -8 3 -5 6 6 6 11 1 17 -2 13 -5z
m1197 -19 c16 -13 38 -27 50 -30 11 -4 30 -10 41 -14 11 -5 39 -14 63 -21 23
-7 42 -17 42 -22 0 -4 10 -8 23 -8 12 0 37 -9 55 -20 18 -11 42 -20 53 -20 30
0 128 -30 134 -41 4 -5 13 -9 20 -9 20 0 162 -98 169 -116 3 -9 2 -23 -4 -32
-5 -10 -10 -14 -11 -9 -1 4 -3 12 -4 17 -1 6 -3 14 -4 19 -2 15 -83 71 -93 65
-5 -3 -14 -1 -21 4 -7 5 -27 13 -45 17 -26 5 -32 11 -27 25 4 13 -2 20 -25 28
-35 13 -40 1 -7 -17 22 -11 22 -11 -3 -6 -14 4 -62 8 -106 10 -93 5 -136 18
-128 38 5 15 -24 31 -96 53 -61 19 -104 18 -97 -1 7 -17 -53 -32 -80 -19 -14
6 -9 9 22 15 l40 7 -50 0 c-27 -1 -70 5 -93 11 -36 10 -52 10 -90 -3 -51 -18
-106 -22 -64 -6 12 5 22 11 22 13 0 2 -34 2 -76 1 -60 -2 -76 1 -81 13 -9 22
14 32 71 31 40 0 46 -2 31 -10 -10 -6 -32 -11 -49 -10 -22 0 -26 -2 -16 -8 19
-10 141 10 134 22 -4 6 36 9 102 8 60 -1 129 -1 153 -1 l44 1 -23 25 c-30 32
-14 32 24 0z m-339 -5 c-3 -5 -30 -9 -58 -8 l-52 1 50 7 c28 4 54 8 58 8 5 1
5 -2 2 -8z m-1271 -6 c9 -3 16 -12 16 -20 0 -8 5 -14 11 -14 5 0 8 -4 4 -10
-3 -5 -12 -7 -20 -4 -8 3 -29 -6 -48 -20 -50 -39 -76 -34 -39 7 16 20 16 20
-3 13 -22 -8 -16 -2 29 32 33 25 29 24 50 16z m329 -18 c15 -10 73 -17 177
-23 85 -5 161 -11 169 -14 7 -2 16 2 18 9 3 7 -5 12 -21 12 -13 0 -27 4 -31 9
-6 10 44 5 108 -10 41 -11 48 -24 17 -32 -21 -5 -28 -27 -9 -27 5 0 8 -4 4
-10 -7 -11 -34 -2 -54 18 -19 19 -140 7 -201 -19 l-44 -20 32 -19 c18 -11 39
-17 48 -13 11 4 15 2 11 -4 -8 -13 -87 -14 -87 -1 0 5 5 6 10 3 6 -3 10 -2 10
3 0 17 -27 21 -64 10 -27 -9 -39 -9 -48 0 -8 8 0 12 28 17 53 9 105 36 94 50
-6 7 11 9 52 8 35 -1 57 2 52 7 -5 5 -67 11 -138 15 -71 3 -135 10 -143 16
-14 12 -50 6 -101 -18 -26 -12 -30 -18 -21 -29 9 -11 9 -14 0 -14 -6 0 -14 7
-17 15 -5 11 -10 13 -19 5 -6 -5 -15 -7 -18 -3 -10 9 53 52 68 47 7 -3 16 -1
19 4 3 6 16 8 28 4 14 -3 19 -2 14 6 -10 17 30 15 57 -2z m1902 -31 c32 -14
55 -28 52 -31 -3 -3 -27 4 -52 15 -26 12 -62 21 -79 22 -26 0 -28 2 -11 9 28
12 27 13 90 -15z m-985 -34 c0 -5 -14 -14 -31 -20 -39 -13 -39 -13 -39 -1 0 5
15 14 33 19 17 5 33 10 35 10 1 1 2 -3 2 -8z m-1352 -19 c2 -7 -2 -10 -12 -6
-9 3 -16 11 -16 16 0 13 23 5 28 -10z m3969 12 c-3 -3 -12 -4 -19 -1 -8 3 -5
6 6 6 11 1 17 -2 13 -5z m-2720 -20 c-3 -3 -12 -4 -19 -1 -8 3 -5 6 6 6 11 1
17 -2 13 -5z m473 -4 c0 -5 15 -10 33 -10 17 0 43 -9 57 -20 14 -11 37 -20 51
-20 32 0 89 -19 89 -30 0 -10 -76 8 -128 31 -23 10 -53 19 -67 19 -13 0 -27 5
-30 10 -3 6 -21 10 -38 11 -27 0 -29 2 -12 9 28 12 45 12 45 0z m-1785 -9 c3
-5 1 -12 -4 -15 -13 -8 -42 4 -35 15 7 12 31 12 39 0z m2399 -22 c-8 -14 -24
-10 -24 6 0 9 6 12 15 9 8 -4 12 -10 9 -15z m-760 5 c23 -9 20 -23 -4 -21 -11
1 -20 5 -20 10 0 4 -4 5 -10 2 -5 -3 -10 -1 -10 4 0 12 20 14 44 5z m-1678
-15 c3 -6 1 -15 -5 -19 -7 -4 -11 -13 -9 -20 2 -7 -15 -19 -39 -27 -29 -10
-40 -19 -36 -28 3 -9 -5 -19 -21 -26 -57 -26 -43 32 15 62 22 11 45 31 51 44
12 26 32 33 44 14z m229 -35 c-9 -7 -24 -10 -32 -7 -14 5 -14 8 2 19 9 7 24
10 32 7 14 -5 14 -8 -2 -19z m272 0 c-9 -9 -28 6 -21 18 4 6 10 6 17 -1 6 -6
8 -13 4 -17z m1283 19 c0 -5 -11 -9 -25 -9 -14 -1 -25 2 -25 7 0 5 11 9 25 9
14 0 25 -3 25 -7z m-804 -27 c25 -25 15 -31 -51 -30 -35 1 -62 -2 -59 -7 3 -5
0 -9 -5 -9 -20 0 -11 -18 11 -23 34 -9 4 -37 -40 -37 -21 0 -40 -7 -48 -17
-16 -21 -18 -47 -4 -38 6 4 8 11 5 16 -4 5 3 9 13 9 11 0 36 7 57 15 22 10 58
15 88 13 l52 -3 -60 -9 c-33 -4 -82 -19 -108 -32 -26 -13 -65 -25 -86 -26 -22
-2 -37 -6 -35 -9 2 -3 -14 -13 -36 -22 -29 -11 -40 -21 -40 -36 0 -12 -4 -21
-10 -21 -5 0 -10 9 -10 19 0 23 48 64 67 57 14 -6 15 -1 7 32 -5 16 -14 22
-35 22 -15 0 -31 5 -34 10 -9 14 -47 12 -67 -4 -26 -19 -22 -26 15 -26 39 0
66 -15 52 -29 -10 -9 -53 -14 -104 -12 -23 1 -23 2 -8 19 26 29 20 38 -8 12
-13 -12 -22 -27 -19 -31 7 -11 -21 -51 -29 -43 -3 4 -13 -1 -22 -10 -13 -12
-36 -16 -100 -16 -75 0 -84 2 -97 23 -23 35 -27 65 -12 78 8 6 11 16 8 21 -4
6 0 14 7 19 8 4 15 13 15 19 1 5 2 16 3 24 0 8 19 17 44 22 41 8 41 8 -33 14
-41 4 -64 8 -50 9 23 2 24 3 5 11 -42 18 143 10 240 -11 54 -11 102 -22 106
-24 13 -9 244 26 251 38 6 11 86 32 131 36 10 0 25 -5 33 -13z m-526 -6 c0 -5
-7 -10 -15 -10 -8 0 -15 5 -15 10 0 6 7 10 15 10 8 0 15 -4 15 -10z m1702 -42
c23 -25 25 -33 17 -57 -11 -30 -46 -45 -71 -30 -7 5 -11 9 -8 10 65 11 75 17
42 26 -12 3 -19 9 -17 14 3 4 12 6 20 2 8 -3 15 -1 15 5 0 5 -43 17 -95 27
-52 9 -95 19 -95 22 0 3 32 2 71 -2 71 -7 71 -7 59 15 -11 20 -10 21 12 9 13
-7 35 -25 50 -41z m92 35 c67 -19 129 -51 121 -63 -3 -4 2 -10 10 -14 19 -7
19 -30 2 -45 -18 -14 -30 -2 -16 15 9 10 7 15 -5 20 -9 3 -14 9 -11 14 11 17
-44 48 -107 60 -38 7 -68 16 -68 21 0 12 4 12 74 -8z m-2054 -3 c0 -5 -13 -10
-30 -10 -16 0 -30 5 -30 10 0 6 14 10 30 10 17 0 30 -4 30 -10z m1517 -23 c3
-5 1 -7 -5 -3 -6 3 -13 2 -17 -4 -3 -5 -18 -10 -33 -9 -15 0 -21 3 -14 6 6 2
12 10 12 17 0 15 47 9 57 -7z m-3429 -7 c6 0 12 -5 12 -11 0 -7 -28 -9 -80 -7
-65 2 -79 0 -75 -11 3 -7 -2 -19 -12 -26 -19 -14 -55 -5 -85 21 -11 11 -22 13
-35 6 -20 -10 -93 -4 -93 8 0 9 49 17 109 19 19 1 36 3 37 4 2 2 156 0 222 -3z
m1852 0 c0 -10 -14 -14 -37 -11 -7 1 -13 -3 -13 -9 0 -5 -11 -10 -24 -10 -14
0 -27 -4 -31 -10 -3 -5 -12 -7 -21 -3 -11 4 -12 8 -3 20 7 7 18 12 25 9 7 -3
16 -1 19 4 3 5 12 7 20 3 8 -3 15 0 15 6 0 6 11 11 25 11 14 0 25 -4 25 -10z
m3045 -1 c27 -7 42 -16 39 -23 -4 -9 10 -12 53 -10 50 3 53 2 23 -6 -19 -4
-64 -7 -99 -5 -35 2 -73 -1 -84 -7 -13 -7 -17 -7 -13 0 4 6 -6 12 -21 15 -16
2 8 5 51 6 90 1 92 9 8 27 -35 8 -46 13 -29 13 16 1 48 -4 72 -10z m-1195 -13
c25 -10 29 -14 15 -20 -28 -10 -80 -7 -95 7 -12 10 -12 9 -1 -5 12 -16 11 -18
-8 -18 -23 0 -28 19 -9 38 16 16 58 15 98 -2z m1467 8 c-3 -3 -12 -4 -19 -1
-8 3 -5 6 6 6 11 1 17 -2 13 -5z m40 -10 c-3 -3 -12 -4 -19 -1 -8 3 -5 6 6 6
11 1 17 -2 13 -5z m-1202 -34 c8 -13 -1 -13 -26 0 -10 6 -19 15 -19 21 0 11
35 -5 45 -21z m-4250 11 c3 -6 -3 -9 -14 -8 -11 0 -17 5 -15 9 7 11 22 10 29
-1z m3637 -19 c30 -14 38 -23 38 -44 0 -16 -4 -28 -9 -28 -12 0 -23 29 -15 41
5 8 -10 13 -20 7 -2 -2 -13 5 -24 15 -10 10 -33 19 -51 20 -17 1 -31 6 -31 11
0 12 68 -1 112 -22z m-1848 -6 c-3 -9 -10 -13 -16 -10 -5 3 -4 12 3 20 15 18
22 13 13 -10z m3196 5 l55 -6 -50 -7 c-27 -3 -57 -2 -67 3 -9 5 -28 9 -43 9
-16 0 -24 4 -19 11 4 7 18 8 38 4 17 -5 56 -11 86 -14z m-4824 -6 c22 -9 50
-22 64 -29 14 -8 42 -17 63 -21 51 -10 47 -22 -10 -27 -55 -5 -99 7 -107 28
-3 8 -12 14 -19 14 -8 0 -20 7 -27 15 -7 8 -18 15 -24 15 -6 0 -4 -5 4 -10 12
-7 10 -9 -7 -7 -21 1 -21 2 -6 19 20 22 21 22 69 3z m1864 -14 c0 -15 -14 -21
-26 -10 -13 11 -20 6 -70 -59 -28 -35 -27 -36 18 -93 17 -20 58 -42 66 -35 3
3 -1 6 -8 6 -7 0 -10 3 -6 7 3 4 -4 13 -16 20 -13 7 -17 12 -10 13 7 0 10 5 7
10 -3 6 -2 10 3 10 6 0 13 -8 16 -17 6 -14 9 -15 16 -4 7 12 11 12 24 0 8 -8
22 -20 31 -27 9 -8 13 -23 11 -38 -3 -13 -1 -22 4 -19 15 9 91 -17 87 -29 -2
-6 -13 -10 -23 -9 -33 3 -194 65 -189 73 2 4 -6 12 -18 19 -22 12 -47 53 -47
77 0 7 -8 17 -17 23 -17 9 -17 10 -1 16 9 4 22 20 28 36 17 40 55 60 92 47 15
-6 28 -13 28 -17z m1890 -1 c0 -12 -8 -12 -35 0 -18 8 -17 9 8 9 15 1 27 -3
27 -9z m-1852 -18 c2 -7 -3 -12 -12 -12 -9 0 -16 7 -16 16 0 17 22 14 28 -4z
m1249 -5 c4 -7 0 -8 -11 -4 -10 4 -24 7 -32 7 -9 0 -13 4 -10 9 7 11 44 3 53
-12z m763 -17 c0 -13 -28 -25 -38 -16 -3 4 0 11 8 16 20 13 30 12 30 0z m580
-3 c0 -7 -5 -18 -12 -25 -18 -18 -9 -20 75 -23 60 -2 81 2 95 14 20 19 37 23
27 7 -3 -5 1 -10 9 -10 9 0 16 4 16 9 0 5 16 11 35 13 24 3 35 0 35 -9 0 -7 6
-13 14 -13 7 0 19 -6 25 -14 19 -23 -6 -30 -37 -10 -24 15 -25 16 -13 1 12
-15 10 -17 -17 -17 -17 0 -33 -4 -36 -9 -3 -5 -50 -8 -103 -7 -67 2 -110 -2
-136 -12 -46 -18 -54 -13 -26 17 l21 22 -21 6 -21 5 20 18 c11 9 20 25 20 34
0 9 7 16 15 16 8 0 15 -6 15 -13z m307 7 c-3 -3 -12 -4 -19 -1 -8 3 -5 6 6 6
11 1 17 -2 13 -5z m58 -13 c-3 -6 -14 -10 -23 -10 -15 1 -15 2 1 6 9 2 17 9
17 15 0 6 3 9 6 5 3 -3 3 -10 -1 -16z m-3660 -1 c-3 -5 -11 -10 -16 -10 -6 0
-7 5 -4 10 3 6 11 10 16 10 6 0 7 -4 4 -10z m2071 -8 c6 -4 13 -15 17 -24 10
-28 -16 -21 -30 7 -11 25 -7 31 13 17z m-329 -19 c6 -16 -52 -27 -74 -14 -17
10 -17 10 0 11 10 0 16 4 13 9 -3 5 9 8 26 7 17 -1 33 -7 35 -13z m1873 7 c0
-5 -7 -7 -15 -4 -8 4 -15 8 -15 10 0 2 7 4 15 4 8 0 15 -4 15 -10z m-1325 -22
c-4 -13 -8 -27 -9 -33 0 -5 31 -12 69 -15 39 -4 78 -11 89 -17 17 -9 15 -12
-18 -38 -39 -30 -80 -35 -166 -20 -55 9 -46 30 13 30 25 0 49 3 53 8 4 4 -4 7
-17 7 -23 0 -76 29 -55 30 5 0 3 7 -4 15 -10 12 -9 15 4 15 10 0 14 5 11 10
-8 14 3 30 21 30 11 0 13 -6 9 -22z m425 2 c0 -5 -8 -10 -17 -10 -10 0 -37
-10 -60 -22 -34 -18 -45 -20 -55 -10 -9 9 -9 12 5 12 9 0 31 9 49 20 35 21 78
27 78 10z m-1207 -37 c-3 -9 -13 -11 -27 -7 -28 9 -29 11 -23 29 5 12 11 13
31 4 15 -7 22 -17 19 -26z m272 27 c3 -5 2 -10 -4 -10 -5 0 -13 5 -16 10 -3 6
-2 10 4 10 5 0 13 -4 16 -10z m409 -10 c41 -15 30 -30 -21 -30 -53 0 -79 12
-69 29 9 14 56 14 90 1z m-398 -31 c3 -6 -5 -3 -20 6 -14 10 -26 19 -26 22 0
7 39 -17 46 -28z m288 23 c3 -5 -8 -23 -24 -40 -29 -32 -50 -41 -50 -22 0 6 3
10 8 10 4 0 16 14 27 30 21 31 30 36 39 22z m1079 -5 l38 -14 -27 -26 c-15
-15 -30 -27 -34 -27 -24 0 -70 14 -70 21 0 6 53 62 55 59 0 0 17 -6 38 -13z
m-2428 -7 c19 -7 19 -8 1 -15 -10 -5 -21 -3 -25 3 -3 5 -17 12 -31 15 -22 4
-22 4 5 5 17 0 39 -3 50 -8z m986 -27 c13 -15 12 -15 -8 -4 -24 12 -29 21 -14
21 5 0 15 -7 22 -17z m-791 -26 c1 -23 78 -66 142 -78 81 -15 111 -32 43 -24
-55 7 -132 29 -184 54 -32 16 -57 54 -45 72 7 12 44 -8 44 -24z m500 23 c0 -5
-16 -12 -35 -16 -37 -7 -42 -13 -23 -32 21 -21 -6 -38 -37 -24 -14 6 -25 15
-25 20 0 4 19 20 42 35 42 27 78 35 78 17z m1088 -6 c13 -4 21 -12 19 -19 -4
-8 15 -10 72 -7 48 3 86 0 99 -7 21 -11 102 -5 242 17 56 9 124 -8 128 -32 2
-10 -6 -27 -17 -38 -12 -10 -19 -23 -16 -29 4 -5 -2 -9 -11 -9 -10 0 -25 -6
-33 -14 -9 -8 -41 -17 -71 -20 -54 -6 -42 4 20 18 26 5 115 75 106 83 -6 6
-89 -18 -106 -32 -8 -7 -34 -15 -58 -19 -24 -4 -54 -13 -66 -21 -12 -8 -27
-12 -31 -8 -5 5 -4 0 3 -9 11 -14 10 -17 -5 -21 -10 -2 -1 -2 21 1 55 6 38
-14 -29 -33 -30 -9 -68 -23 -85 -31 -16 -9 -40 -14 -52 -12 -17 3 -13 6 17 12
22 5 45 14 50 20 6 7 19 18 30 24 18 10 18 12 3 13 -27 2 -32 4 -47 13 -8 5
-16 4 -20 -1 -4 -7 -33 -6 -85 3 -52 9 -83 11 -91 4 -6 -5 -15 -6 -19 -2 -4 4
-13 0 -19 -9 -20 -26 -49 -37 -107 -38 -30 0 -76 -6 -103 -13 -36 -9 -50 -9
-59 0 -9 9 -5 12 19 12 18 0 35 5 38 11 5 6 22 8 47 4 30 -5 44 -3 58 10 14
12 29 16 49 12 25 -5 29 -4 24 10 -5 13 -2 15 11 10 10 -4 23 -4 29 0 7 4 19
8 27 8 23 0 24 32 1 40 -27 8 -26 19 1 45 12 11 17 20 10 20 -6 0 -13 -4 -16
-9 -3 -4 -17 -6 -31 -3 l-26 5 22 23 c25 26 24 26 57 18z m-1348 -34 c0 -5 -7
-10 -15 -10 -8 0 -15 5 -15 10 0 6 7 10 15 10 8 0 15 -4 15 -10z m1141 -57
c-12 -8 -25 -12 -30 -9 -5 4 -11 1 -13 -5 -2 -6 -16 -11 -31 -11 -15 0 -27 -4
-27 -9 0 -5 -8 -9 -17 -9 -10 0 -31 -7 -47 -15 -39 -21 -53 -19 -52 8 1 15 8
22 21 23 11 1 35 2 53 3 19 0 31 5 27 11 -4 6 8 10 28 10 19 0 47 7 63 14 34
18 53 10 25 -11z m-996 7 c3 -5 1 -10 -4 -10 -6 0 -11 5 -11 10 0 6 2 10 4 10
3 0 8 -4 11 -10z m-150 -10 c19 -8 19 -9 -2 -9 -12 -1 -25 4 -28 9 -7 12 2 12
30 0z m192 -6 c-3 -3 -12 -4 -19 -1 -8 3 -5 6 6 6 11 1 17 -2 13 -5z m-777
-19 c11 -13 10 -14 -4 -9 -9 3 -16 10 -16 15 0 13 6 11 20 -6z m655 5 c13 -5
14 -9 5 -9 -8 0 -24 4 -35 9 -13 5 -14 9 -5 9 8 0 24 -4 35 -9z m170 -8 c-3
-3 -11 0 -18 7 -9 10 -8 11 6 5 10 -3 15 -9 12 -12z m665 -2 c0 -5 -2 -10 -4
-10 -3 0 -8 5 -11 10 -3 6 -1 10 4 10 6 0 11 -4 11 -10z m-995 -28 c22 -13 13
-15 -40 -12 -46 2 -64 10 -59 24 6 15 66 8 99 -12z m-431 -31 c-2 -3 -12 3
-22 13 -16 17 -16 18 5 5 12 -7 20 -15 17 -18z m146 19 c8 -5 11 -10 5 -10 -5
0 -17 5 -25 10 -8 5 -10 10 -5 10 6 0 17 -5 25 -10z m2355 0 c3 -5 2 -10 -4
-10 -5 0 -13 5 -16 10 -3 6 -2 10 4 10 5 0 13 -4 16 -10z m589 -9 c11 -16 -27
-22 -43 -6 -14 13 -13 15 11 15 15 0 29 -4 32 -9z m-1514 -17 c0 -2 -17 -4
-37 -3 -33 1 -35 2 -13 8 23 7 50 4 50 -5z m-523 -20 c-3 -3 -14 -6 -25 -7
-36 -2 -12 -17 29 -17 21 0 39 -4 39 -8 0 -12 -105 4 -155 22 l-40 15 73 0
c50 1 72 5 73 14 0 9 2 9 6 -1 3 -7 3 -15 0 -18z m283 16 c0 -5 -4 -10 -10
-10 -5 0 -10 5 -10 10 0 6 5 10 10 10 6 0 10 -4 10 -10z m-2430 -10 c8 -5 11
-10 5 -10 -5 0 -17 5 -25 10 -8 5 -10 10 -5 10 6 0 17 -5 25 -10z m-305 -10
c3 -5 -1 -10 -10 -10 -9 0 -13 5 -10 10 3 6 8 10 10 10 2 0 7 -4 10 -10z
m3589 -2 c-6 -10 -4 -10 7 0 18 17 50 16 43 -2 -3 -7 -17 -14 -32 -14 -32 0
-44 6 -37 19 9 14 27 11 19 -3z m-41 -5 c-7 -2 -19 -2 -25 0 -7 3 -2 5 12 5
14 0 19 -2 13 -5z m2015 -6 c13 4 14 3 6 -6 -13 -14 -47 -3 -37 12 5 8 8 8 10
0 3 -7 12 -9 21 -6z m-5511 -3 c-3 -3 -12 -4 -19 -1 -8 3 -5 6 6 6 11 1 17 -2
13 -5z m1774 -14 c42 0 95 -7 119 -15 42 -15 115 -11 126 6 6 10 38 -7 66 -33
10 -10 28 -18 41 -19 21 0 21 -1 2 -9 -25 -9 -209 6 -248 22 -19 7 -26 16 -22
26 4 12 -3 13 -47 7 -67 -9 -100 -8 -163 2 -43 7 -47 10 -31 19 13 8 30 9 50
3 17 -5 65 -9 107 -9z m929 0 c44 -6 28 -7 -78 -9 -87 -1 -131 2 -127 9 7 11
124 12 205 0z m150 1 c0 -11 -25 -21 -56 -21 -36 0 -29 18 9 23 17 2 35 5 40
5 4 1 7 -2 7 -7z m-560 -12 c85 -18 47 -33 -64 -24 -90 6 -106 12 -89 28 10
11 96 8 153 -4z m2998 -4 c-2 -1 -16 -5 -33 -9 -28 -7 -29 -6 -10 7 10 8 25
12 33 10 7 -3 12 -7 10 -8z m-3694 -12 c13 -7 28 -8 43 -2 14 5 36 3 60 -6 35
-12 31 -20 -7 -16 -10 1 -6 -6 10 -20 l24 -21 -24 -20 c-23 -18 -23 -19 -2 -8
28 14 45 4 37 -21 -4 -13 -2 -19 9 -19 8 0 30 -13 48 -30 30 -28 31 -30 11
-30 -31 0 -93 31 -86 43 4 6 1 7 -6 3 -15 -10 -81 2 -81 14 0 5 9 12 20 15 32
10 23 25 -14 25 -19 0 -38 5 -42 11 -3 6 -17 9 -30 6 -13 -2 -21 -1 -19 4 3 4
1 10 -5 14 -5 3 -10 1 -10 -4 0 -6 -4 -11 -10 -11 -5 0 -7 6 -4 14 4 10 -17
14 -98 19 -105 6 -223 25 -213 35 17 17 361 21 389 5z m4006 5 c0 -4 -18 -11
-41 -14 -22 -4 -43 -13 -46 -20 -6 -17 -113 -20 -113 -3 0 5 -4 8 -9 4 -5 -3
-13 0 -17 6 -4 8 -3 9 4 5 7 -4 12 -2 12 3 0 6 -9 11 -21 11 -11 0 -18 -4 -15
-9 4 -5 0 -12 -6 -15 -9 -3 -7 -9 6 -20 11 -9 18 -18 15 -20 -2 -2 -37 -8 -76
-11 -52 -6 -73 -4 -73 4 0 6 5 11 10 11 18 0 10 18 -10 25 -34 11 -13 22 46
24 31 1 64 7 74 14 19 13 260 18 260 5z m-3698 -58 c21 0 38 -4 38 -8 0 -8
-80 -6 -117 3 -13 3 -23 9 -23 14 0 6 13 6 32 0 18 -5 50 -9 70 -9z m377 -23
c8 -11 5 -16 -15 -25 -30 -14 -45 -15 -25 -3 12 8 12 12 2 25 -12 14 -11 16 7
16 11 0 25 -6 31 -13z m-431 -12 c38 -8 33 -25 -7 -25 -35 0 -88 26 -69 33 7
3 20 4 28 2 8 -2 30 -6 48 -10z m642 2 c0 -5 7 -3 16 4 14 11 20 9 44 -20 17
-22 29 -30 34 -23 4 7 17 11 29 10 19 -2 22 -8 22 -39 0 -33 -2 -36 -25 -35
-14 1 -31 5 -37 9 -7 4 -22 3 -33 -3 -11 -6 -20 -8 -20 -5 0 3 0 8 0 13 0 4 4
7 9 7 20 0 23 16 7 40 -24 37 -36 31 -36 -20 0 -33 -4 -45 -15 -45 -11 0 -15
12 -15 52 0 49 -1 51 -17 36 -10 -10 -16 -31 -15 -52 1 -20 -3 -36 -8 -36 -16
0 -24 52 -11 71 14 23 14 32 1 24 -11 -7 -14 8 -4 18 10 10 74 5 74 -6z m458
-12 c-10 -22 -12 -23 -23 -8 -15 20 -45 10 -45 -15 0 -26 34 -55 57 -48 10 3
23 16 28 28 7 15 19 23 35 23 20 0 26 -6 28 -28 4 -33 22 -26 22 9 0 33 45 35
54 2 l7 -23 9 23 c5 12 18 22 28 22 26 0 34 -11 21 -27 -13 -15 -33 -18 -24
-3 3 5 1 10 -4 10 -13 0 -14 -10 -3 -28 5 -7 16 -10 27 -6 13 5 16 3 13 -7 -7
-21 -40 -24 -54 -5 -10 14 -12 14 -17 2 -4 -11 -22 -14 -69 -14 -35 1 -68 5
-75 10 -7 5 -14 5 -18 -2 -10 -15 -46 -12 -67 7 -39 35 -4 103 54 103 26 0 27
-2 16 -25z m-968 3 c25 -6 55 -10 68 -9 12 0 22 -3 22 -7 0 -4 12 -7 28 -8 45
-1 105 -14 120 -26 10 -9 16 -8 22 2 5 8 12 11 16 7 15 -15 -18 -32 -59 -31
-23 1 -75 13 -116 28 -41 14 -83 24 -92 21 -10 -3 -34 1 -53 9 -63 26 -38 35
44 14z m3229 -14 c-6 -8 -15 -12 -18 -8 -3 4 0 9 7 11 6 3 9 10 6 15 -4 7 -2
8 5 4 9 -6 9 -11 0 -22z m-2502 -18 c-3 -6 -10 -10 -17 -8 -8 2 -11 -7 -8 -28
3 -19 0 -30 -8 -30 -10 0 -25 65 -17 74 9 9 53 2 50 -8z m44 -22 c4 -22 8 -25
13 -13 4 9 6 22 4 29 -2 7 3 15 10 17 17 6 15 -27 -3 -51 -8 -11 -15 -28 -15
-38 0 -33 -18 -19 -24 20 -4 20 -10 45 -13 56 -3 12 -1 17 8 14 8 -3 17 -18
20 -34z m-351 16 c0 -5 -11 -10 -25 -10 -14 0 -25 5 -25 10 0 6 11 10 25 10
14 0 25 -4 25 -10z m922 -26 c20 -10 45 -14 68 -11 21 3 47 -1 61 -9 22 -13
20 -14 -33 -12 -31 0 -62 4 -69 9 -8 4 -20 -2 -31 -16 -13 -17 -27 -23 -46
-21 -15 2 -33 4 -39 5 -11 1 -10 37 3 78 4 14 27 7 86 -23z m325 11 c49 -7
128 -44 117 -55 -6 -6 -25 -4 -49 4 -22 8 -61 17 -88 21 -42 6 -46 9 -35 23
11 13 10 15 -5 9 -10 -4 -23 -7 -28 -7 -6 0 -8 -4 -5 -9 4 -5 -3 -7 -14 -4
-11 3 -20 10 -20 15 0 6 6 8 13 5 8 -3 20 -1 28 4 8 5 23 7 34 4 11 -3 34 -8
52 -10z m-3052 -16 c19 -9 18 -9 -3 -5 -12 2 -20 0 -16 -5 7 -12 42 -11 46 2
2 5 11 7 21 4 27 -11 9 -25 -32 -25 -37 0 -68 19 -54 33 8 9 13 8 38 -4z
m1318 -44 c24 -10 21 -25 -5 -25 -25 0 -82 33 -72 42 5 6 39 -2 77 -17z m137
-25 c0 -12 -47 -12 -75 0 -15 6 -8 9 28 9 26 1 47 -3 47 -9z"/>
<path d="M2438 9175 c-15 -8 -31 -30 -38 -49 -17 -53 2 -106 58 -164 54 -55
90 -77 145 -87 33 -6 40 -4 72 28 23 23 35 44 35 62 0 37 -80 156 -127 188
-48 33 -109 42 -145 22z"/>
<path d="M3510 9164 c-30 -21 -36 -32 -42 -77 -3 -28 -6 -73 -7 -98 -1 -44 1
-47 38 -64 22 -10 50 -28 62 -41 30 -32 64 -30 94 4 61 68 52 176 -22 243 -26
23 -79 60 -85 59 -2 -1 -19 -12 -38 -26z"/>
<path d="M4365 9180 c-32 -50 -35 -160 -5 -160 5 0 47 23 95 52 l86 51 -48 49
c-62 63 -92 65 -128 8z"/>
<path d="M6835 9180 c-15 -24 -25 -54 -25 -77 0 -46 9 -83 20 -83 5 0 47 23
95 52 l86 51 -48 49 c-62 63 -92 65 -128 8z"/>
<path d="M3141 7744 c-35 -29 -56 -91 -48 -141 8 -46 60 -117 101 -137 43 -20
90 -21 121 0 24 16 25 21 25 123 l0 106 -35 28 c-67 54 -118 60 -164 21z"/>
<path d="M6522 7745 c-36 -30 -57 -91 -49 -142 8 -47 64 -123 103 -139 51 -21
97 -18 123 10 20 21 21 31 19 126 l-3 102 -41 30 c-23 16 -59 32 -81 35 -32 4
-44 0 -71 -22z"/>
<path d="M2168 7735 c-51 -28 -57 -101 -16 -171 36 -61 144 -134 199 -134 31
0 89 62 89 95 0 38 -75 148 -126 184 -50 37 -108 47 -146 26z"/>
<path d="M3971 7744 c-31 -22 -51 -73 -51 -132 0 -84 73 -172 144 -172 51 0
56 7 56 84 0 58 5 78 25 111 29 48 31 58 8 52 -21 -4 -67 17 -106 49 -34 28
-45 29 -76 8z"/>
<path d="M5378 7735 c-15 -8 -31 -30 -38 -49 -17 -53 2 -106 58 -164 54 -55
90 -77 145 -87 33 -6 40 -4 72 28 23 23 35 44 35 62 0 37 -80 156 -127 188
-48 33 -109 42 -145 22z"/>
<path d="M4175 5919 c-4 -6 -4 -13 -1 -16 3 -4 6 0 6 7 0 8 13 2 32 -16 l32
-29 -25 32 c-26 35 -34 39 -44 22z"/>
<path d="M3410 5341 c-9 -18 -8 -20 9 -13 22 8 28 25 12 30 -5 2 -15 -6 -21
-17z"/>
<path d="M3280 5050 c-12 -7 -10 -9 7 -7 12 0 19 5 17 9 -6 10 -6 10 -24 -2z"/>
<path d="M5296 3693 c-6 -14 -5 -15 5 -6 7 7 10 15 7 18 -3 3 -9 -2 -12 -12z"/>
<path d="M5280 3654 c0 -14 3 -14 15 -4 8 7 15 14 15 16 0 2 -7 4 -15 4 -8 0
-15 -7 -15 -16z"/>
<path d="M4340 920 c0 -5 14 -10 30 -10 17 0 30 5 30 10 0 6 -13 10 -30 10
-16 0 -30 -4 -30 -10z"/>
<path d="M4715 1410 c-3 -5 -1 -10 4 -10 6 0 11 5 11 10 0 6 -2 10 -4 10 -3 0
-8 -4 -11 -10z"/>
<path d="M5688 1243 c7 -3 16 -2 19 1 4 3 -2 6 -13 5 -11 0 -14 -3 -6 -6z"/>
<path d="M5275 1130 c3 -5 8 -10 11 -10 2 0 4 5 4 10 0 6 -5 10 -11 10 -5 0
-7 -4 -4 -10z"/>
<path d="M3948 933 c12 -2 30 -2 40 0 9 3 -1 5 -23 4 -22 0 -30 -2 -17 -4z"/>
<path d="M3382 869 c-14 -16 -34 -29 -44 -29 -11 0 -17 -4 -14 -9 3 -5 -1 -14
-8 -21 -15 -12 -19 -70 -5 -70 5 0 6 -6 3 -13 -4 -10 8 -13 53 -10 32 2 62 8
67 13 13 13 29 13 21 0 -3 -5 0 -7 9 -4 8 3 22 21 31 40 10 21 31 42 57 55 46
23 42 31 -27 50 -100 29 -115 29 -143 -2z"/>
<path d="M3745 850 c-3 -5 3 -10 14 -10 11 0 23 5 26 10 3 6 -3 10 -14 10 -11
0 -23 -4 -26 -10z"/>
<path d="M2986 771 c-4 -7 -5 -15 -2 -18 9 -9 19 4 14 18 -4 11 -6 11 -12 0z"/>
<path d="M3117 617 c-3 -9 -2 -19 4 -23 15 -9 18 -2 9 20 -6 17 -7 18 -13 3z"/>
<path d="M5955 740 c4 -6 11 -8 16 -5 14 9 11 15 -7 15 -8 0 -12 -5 -9 -10z"/>
<path d="M5835 710 c-3 -5 -1 -10 4 -10 6 0 11 5 11 10 0 6 -2 10 -4 10 -3 0
-8 -4 -11 -10z"/>
<path d="M5198 583 c7 -3 16 -2 19 1 4 3 -2 6 -13 5 -11 0 -14 -3 -6 -6z"/>
<path d="M5012 568 c-18 -5 -32 -12 -32 -17 0 -11 127 -14 134 -3 8 14 -67 29
-102 20z"/>
<path d="M5207 553 c-14 -13 -6 -23 17 -21 19 2 22 5 14 15 -12 14 -21 16 -31
6z"/>
<path d="M7130 370 c0 -5 10 -10 23 -10 18 0 19 2 7 10 -19 13 -30 13 -30 0z"/>
<path d="M7210 370 c20 -13 33 -13 25 0 -3 6 -14 10 -23 10 -15 0 -15 -2 -2
-10z"/>
<path d="M4315 240 c-7 -12 2 -30 16 -30 5 0 9 9 9 20 0 21 -15 27 -25 10z"/>
<path d="M4790 250 c0 -5 5 -10 11 -10 5 0 7 5 4 10 -3 6 -8 10 -11 10 -2 0
-4 -4 -4 -10z"/>
<path d="M4710 231 c0 -12 6 -21 14 -21 17 0 15 32 -2 38 -7 2 -12 -6 -12 -17z"/>
<path d="M4800 220 c-8 -5 -11 -12 -7 -16 4 -4 13 -2 19 4 15 15 7 24 -12 12z"/>
<path d="M3825 250 c11 -5 31 -8 45 -8 l25 0 -25 8 c-14 4 -34 8 -45 8 l-20 1
20 -9z"/>
</g>
</svg>
